<svg width="40" height="38" viewBox="0 0 40 38" fill="none" xmlns="http://www.w3.org/2000/svg">
<path d="M20 6.96173L18.2081 5.09537C13.9973 0.709502 6.28536 2.22349 3.50089 7.73386C2.29443 10.1214 1.94953 13.4844 3.77064 17.7333H1.07561C-4.24506 3.30056 11.4863 -4.63548 19.5608 2.89581C19.7099 3.03485 19.8563 3.17917 20 3.32881C20.1437 3.17918 20.2901 3.03487 20.4392 2.89583C28.5137 -4.63549 44.2451 3.30055 38.9244 17.7333H36.2294C38.0505 13.4844 37.7056 10.1214 36.4991 7.73386C33.7146 2.22349 26.0027 0.709502 21.7919 5.09537L20 6.96173Z" fill="white"/>
<path d="M5.53015 25.3333H8.81734C11.4826 28.3309 15.1283 31.56 20 34.9463C24.8717 31.56 28.5174 28.3309 31.1827 25.3333H34.4698C31.3066 29.3017 26.6208 33.5669 20 38C13.3792 33.5669 8.69337 29.3017 5.53015 25.3333Z" fill="white"/>
<path d="M26.1606 8.39624C25.9621 7.89333 25.47 7.57399 24.9361 7.60165C24.4023 7.62932 23.9449 7.99788 23.7981 8.51869L19.8026 22.6893L16.1606 13.4629C15.9882 13.0262 15.5912 12.7222 15.1295 12.6735C14.6677 12.6248 14.2174 12.8393 13.9599 13.2307L9.33102 20.2667H1.25C0.559644 20.2667 0 20.8338 0 21.5333C0 22.2329 0.559644 22.8 1.25 22.8H10C10.4179 22.8 10.8082 22.5883 11.0401 22.236L14.7219 16.6395L18.8394 27.0704C19.0379 27.5733 19.53 27.8927 20.0639 27.865C20.5977 27.8373 21.0551 27.4688 21.2019 26.948L25.1974 12.7773L28.8394 22.0038C29.0292 22.4847 29.4889 22.8 30 22.8H38.75C39.4404 22.8 40 22.2329 40 21.5333C40 20.8338 39.4404 20.2667 38.75 20.2667H30.8463L26.1606 8.39624Z" fill="white"/>
</svg>
