<svg width="40" height="30" viewBox="0 0 40 30" fill="none" xmlns="http://www.w3.org/2000/svg">
<path d="M12.5 15C15.2614 15 17.5 12.7614 17.5 10C17.5 7.23858 15.2614 5 12.5 5C9.73858 5 7.5 7.23858 7.5 10C7.5 12.7614 9.73858 15 12.5 15Z" fill="#65E2E3"/>
<path d="M22.5 8.75C22.5 8.05964 23.0596 7.5 23.75 7.5H33.75C34.4404 7.5 35 8.05964 35 8.75C35 9.44036 34.4404 10 33.75 10H23.75C23.0596 10 22.5 9.44036 22.5 8.75Z" fill="#65E2E3"/>
<path d="M22.5 15C22.5 14.3096 23.0596 13.75 23.75 13.75H33.75C34.4404 13.75 35 14.3096 35 15C35 15.6904 34.4404 16.25 33.75 16.25H23.75C23.0596 16.25 22.5 15.6904 22.5 15Z" fill="#65E2E3"/>
<path d="M25 21.25C25 20.5596 25.5596 20 26.25 20H33.75C34.4404 20 35 20.5596 35 21.25C35 21.9404 34.4404 22.5 33.75 22.5H26.25C25.5596 22.5 25 21.9404 25 21.25Z" fill="#65E2E3"/>
<path d="M5 0C2.23858 0 0 2.23858 0 5V25C0 27.7614 2.23858 30 5 30H35C37.7614 30 40 27.7614 40 25V5C40 2.23858 37.7614 0 35 0H5ZM2.5 5C2.5 3.61929 3.61929 2.5 5 2.5H35C36.3807 2.5 37.5 3.61929 37.5 5V25C37.5 26.3807 36.3807 27.5 35 27.5H22.3987C22.4655 27.0917 22.5 26.6744 22.5 26.25C22.5 21.4175 18.0228 17.5 12.5 17.5C7.28422 17.5 3.00108 20.994 2.54093 25.453C2.51405 25.3061 2.5 25.1547 2.5 25V5Z" fill="#65E2E3"/>
</svg>
