<svg width="31" height="42" viewBox="0 0 31 42" fill="none" xmlns="http://www.w3.org/2000/svg">
<path d="M7.75 10.3333C7.03663 10.3333 6.45833 10.9116 6.45833 11.625C6.45833 12.3384 7.03663 12.9167 7.75 12.9167H23.25C23.9634 12.9167 24.5417 12.3384 24.5417 11.625C24.5417 10.9116 23.9634 10.3333 23.25 10.3333H7.75Z" fill="white"/>
<path d="M6.45833 16.7917C6.45833 16.0783 7.03663 15.5 7.75 15.5H23.25C23.9634 15.5 24.5417 16.0783 24.5417 16.7917C24.5417 17.505 23.9634 18.0833 23.25 18.0833H7.75C7.03663 18.0833 6.45833 17.505 6.45833 16.7917Z" fill="white"/>
<path d="M7.75 20.6667C7.03663 20.6667 6.45833 21.245 6.45833 21.9583C6.45833 22.6717 7.03663 23.25 7.75 23.25H23.25C23.9634 23.25 24.5417 22.6717 24.5417 21.9583C24.5417 21.245 23.9634 20.6667 23.25 20.6667H7.75Z" fill="white"/>
<path d="M7.75 25.8333C7.03663 25.8333 6.45833 26.4116 6.45833 27.125C6.45833 27.8384 7.03663 28.4167 7.75 28.4167H15.5C16.2134 28.4167 16.7917 27.8384 16.7917 27.125C16.7917 26.4116 16.2134 25.8333 15.5 25.8333H7.75Z" fill="white"/>
<path d="M0 5.16667C0 2.31319 2.3132 0 5.16667 0H25.8333C28.6868 0 31 2.3132 31 5.16667V36.1667C31 39.0201 28.6868 41.3333 25.8333 41.3333H5.16667C2.3132 41.3333 0 39.0201 0 36.1667V5.16667ZM25.8333 2.58333H5.16667C3.73993 2.58333 2.58333 3.73993 2.58333 5.16667V36.1667C2.58333 37.5934 3.73993 38.75 5.16667 38.75H25.8333C27.2601 38.75 28.4167 37.5934 28.4167 36.1667V5.16667C28.4167 3.73993 27.2601 2.58333 25.8333 2.58333Z" fill="white"/>
</svg>
