<svg width="38" height="38" viewBox="0 0 38 38" fill="none" xmlns="http://www.w3.org/2000/svg">
<path d="M20.1875 11.9566V14.5702L22.4509 13.2635L23.6384 15.3203L21.375 16.6271L23.6384 17.9339L22.4509 19.9907L20.1875 18.6839V21.2975H17.8125V18.6839L15.549 19.9907L14.3615 17.9339L16.625 16.6271L14.3615 15.3203L15.549 13.2635L17.8125 14.5703V11.9566H20.1875Z" fill="#65E2E3"/>
<path d="M31.4688 21.375C31.1408 21.375 30.875 21.6408 30.875 21.9688V23.1562C30.875 23.4842 31.1408 23.75 31.4688 23.75H32.6562C32.9842 23.75 33.25 23.4842 33.25 23.1562V21.9688C33.25 21.6408 32.9842 21.375 32.6562 21.375H31.4688Z" fill="#65E2E3"/>
<path d="M30.875 26.7188C30.875 26.3908 31.1408 26.125 31.4688 26.125H32.6562C32.9842 26.125 33.25 26.3908 33.25 26.7188V27.9062C33.25 28.2342 32.9842 28.5 32.6562 28.5H31.4688C31.1408 28.5 30.875 28.2342 30.875 27.9062V26.7188Z" fill="#65E2E3"/>
<path d="M31.4688 30.875C31.1408 30.875 30.875 31.1408 30.875 31.4688V32.6562C30.875 32.9842 31.1408 33.25 31.4688 33.25H32.6562C32.9842 33.25 33.25 32.9842 33.25 32.6562V31.4688C33.25 31.1408 32.9842 30.875 32.6562 30.875H31.4688Z" fill="#65E2E3"/>
<path d="M5.34375 21.375C5.01583 21.375 4.75 21.6408 4.75 21.9688V23.1562C4.75 23.4842 5.01583 23.75 5.34375 23.75H6.53125C6.85917 23.75 7.125 23.4842 7.125 23.1562V21.9688C7.125 21.6408 6.85917 21.375 6.53125 21.375H5.34375Z" fill="#65E2E3"/>
<path d="M5.34375 26.125C5.01583 26.125 4.75 26.3908 4.75 26.7188V27.9062C4.75 28.2342 5.01583 28.5 5.34375 28.5H6.53125C6.85917 28.5 7.125 28.2342 7.125 27.9062V26.7188C7.125 26.3908 6.85917 26.125 6.53125 26.125H5.34375Z" fill="#65E2E3"/>
<path d="M4.75 31.4688C4.75 31.1408 5.01583 30.875 5.34375 30.875H6.53125C6.85917 30.875 7.125 31.1408 7.125 31.4688V32.6562C7.125 32.9842 6.85917 33.25 6.53125 33.25H5.34375C5.01583 33.25 4.75 32.9842 4.75 32.6562V31.4688Z" fill="#65E2E3"/>
<path d="M11.875 2.375C11.875 1.06332 12.9383 0 14.25 0H23.75C25.0617 0 26.125 1.06332 26.125 2.375V4.75C27.4367 4.75 28.5 5.81332 28.5 7.125V16.625H35.625C36.9367 16.625 38 17.6883 38 19V35.625C38 36.9367 36.9367 38 35.625 38H2.375C1.06333 38 0 36.9367 0 35.625V19C0 17.6883 1.06332 16.625 2.375 16.625H9.5V7.125C9.5 5.81333 10.5633 4.75 11.875 4.75V2.375ZM16.625 35.625H21.375V28.5H16.625V35.625ZM23.75 35.625H26.125V7.125L11.875 7.125V35.625H14.25V28.5C14.25 27.1883 15.3133 26.125 16.625 26.125H21.375C22.6867 26.125 23.75 27.1883 23.75 28.5V35.625ZM23.75 2.375H14.25V4.75H23.75V2.375ZM28.5 19V35.625H35.625V19H28.5ZM9.5 35.625V19H2.375V35.625H9.5Z" fill="#65E2E3"/>
</svg>
